<?xml version="1.0" encoding="utf-8"?>
<!-- Generator: Adobe Illustrator 21.1.0, SVG Export Plug-In . SVG Version: 6.00 Build 0)  -->
<svg version="1.1" id="Layer_2" xmlns="http://www.w3.org/2000/svg" xmlns:xlink="http://www.w3.org/1999/xlink" x="0px" y="0px"
	 viewBox="0 0 145 46" style="enable-background:new 0 0 145 46;" xml:space="preserve">
<style type="text/css">
	.st0{fill:#FFFFFF;}
</style>
<g>
	<path class="st0" d="M14.1,32.6c-0.2,0-0.3,0-0.5,0H8.8V13.7h4.8c0.2,0,0.3,0,0.5,0c5,0.2,9,4.4,9,9.4C23,28.2,19,32.3,14.1,32.6
		 M13.7,4.8H0v36.7h13.7c10.1,0,18.3-8.2,18.3-18.3S23.8,4.8,13.7,4.8"/>
	<path class="st0" d="M72.3,28.8c-0.9,2.7-3.4,4.6-6.4,4.6c-3.7,0-6.7-3-6.7-6.7c0-3.7,3-6.7,6.7-6.7c3.7,0,6.7,3,6.7,6.7
		C72.7,27.4,72.6,28.1,72.3,28.8 M66,11.2c-8.5,0-15.5,6.9-15.5,15.5c0,9.2,7.3,15.5,15,15.5c2.9,0,6.2-1.2,8.9-3.8l7,3.3v-15
		C81.4,18.1,74.5,11.2,66,11.2"/>
	<path class="st0" d="M140.5,32c0,5.5-4.1,9.5-10.3,9.5h-26.7V14.9c0-5.4,4.7-10.4,10-10.4h27V32z M139.4,0h-25.8
		C105.6,0,99,6.4,99,14.3v26.1c0,3.1,2.5,5.6,5.6,5.6h26.4c7.2,0,13.9-5.2,13.9-12.9V5.6C145,2.5,142.5,0,139.4,0"/>
	<polygon class="st0" points="36.8,41.5 46.1,41.5 46.1,10.4 36.8,14.6 	"/>
	<polygon class="st0" points="117.5,36.4 108.7,36.4 126.5,9.8 135.3,9.8 	"/>
	<path class="st0" d="M135,33.3c-0.7,2-2.5,3.4-4.7,3.4c-2.8,0-5-2.3-5-5c0-2.8,2.2-5,5-5c2.8,0,5,2.3,5,5
		C135.3,32.3,135.2,32.8,135,33.3"/>
	<path class="st0" d="M118.4,15.9c-0.7,2-2.5,3.4-4.7,3.4c-2.8,0-5-2.3-5-5c0-2.8,2.2-5,5-5c2.8,0,5,2.3,5,5
		C118.7,14.9,118.6,15.4,118.4,15.9"/>
</g>
</svg>
